<svg xmlns="http://www.w3.org/2000/svg" viewBox="0 0 100 100"><defs><style>.cls-1{fill:#00377d;}.cls-2{fill:#00c8ff;}.cls-3{fill:none;}</style></defs><title>me gusta, like, mano (color)</title><g id="Light_Theme" data-name="Light Theme"><path class="cls-1" d="M75.39,52.08C75.3,45.33,75.22,39,69.24,39h-6.5a47.79,47.79,0,0,0,2.4-7.28c1.17-5.49-.07-9.33-3.25-10a4.68,4.68,0,0,0-3.72.46c-1.66,1.1-2.05,3.32-2.4,5.27A12.29,12.29,0,0,1,55.11,30c-2.85,6.45-6.46,12.45-13.58,12.68H39.1s0,0,0,.06v2.36h2.46c8.52-.27,12.74-7.29,15.75-14.12a13.94,13.94,0,0,0,.83-3.22c.28-1.54.56-3.14,1.36-3.67A2.39,2.39,0,0,1,61.36,24c1.93.43,2.09,4,1.41,7.16a51.39,51.39,0,0,1-3,8.49,1.26,1.26,0,0,0,.09,1.16,1.22,1.22,0,0,0,1,.55h8.33c3.26,0,3.63,3.11,3.73,10.74l0,1.51c.09,5.64-.77,9.19-2.69,11.15-1.44,1.46-3.58,2.14-6.72,2.14H56.05c-2.81,0-4.74-1.11-6.77-2.29s-4.43-2.55-7.75-2.55H39.11v2.42h2.42c2.68,0,4.55,1.08,6.54,2.23,2.22,1.28,4.52,2.61,8,2.61h7.53c3.78,0,6.55-.94,8.44-2.87,2.41-2.45,3.49-6.54,3.39-12.88Z"/><path class="cls-2" d="M35.48,69.2H28.22a3.64,3.64,0,0,1-3.63-3.63V42.77a3.64,3.64,0,0,1,3.63-3.63h7.26a3.64,3.64,0,0,1,3.63,3.63v22.8A3.64,3.64,0,0,1,35.48,69.2ZM28.22,41.56A1.21,1.21,0,0,0,27,42.77v22.8a1.21,1.21,0,0,0,1.21,1.21h7.26a1.21,1.21,0,0,0,1.21-1.21V42.77a1.21,1.21,0,0,0-1.21-1.21Z"/><circle class="cls-2" cx="31.86" cy="60.89" r="1.21"/></g><g id="Marco"><rect class="cls-3" width="100" height="100"/></g></svg>