<?xml version="1.0" encoding="UTF-8"?>
<svg width="24px" height="24px" viewBox="0 0 24 24" version="1.1" xmlns="http://www.w3.org/2000/svg" xmlns:xlink="http://www.w3.org/1999/xlink">
    <title>HBO_MAX - 24x24</title>
    <g id="HBO_MAX---24x24" stroke="none" stroke-width="1" fill="none" fill-rule="evenodd">
        <path d="M13.6077784,12.889848 C14.140738,12.889848 14.7856684,13.0592592 15.2831042,13.4942021 L15.2831042,13.4942021 L15.4110413,13.2623649 C15.5058574,13.0923366 15.6810735,12.9876316 15.8707315,12.9874975 L15.8707315,12.9874975 L16.2166166,12.9876048 C16.2654972,12.9876048 16.3051547,13.028623 16.3051547,13.0792451 L16.3051547,13.0792451 L16.3031395,18.8839204 C16.3031395,18.9345158 16.2635079,18.9564065 16.2146272,18.9564065 L16.2146272,18.9564065 L15.7129286,18.9564065 C15.433854,18.9564065 15.2055203,18.7526837 15.1838443,18.4695805 C14.7999812,18.7920118 14.2001595,19 13.5948607,19 C12.0141185,19 10.9231907,17.8324709 10.9231907,15.9449106 C10.9231907,14.0723196 11.9960854,12.889848 13.6077784,12.889848 Z M8.47383481,12.8898449 C9.66464248,12.8880774 10.6347121,13.6511657 10.6682981,15.0947425 L10.6682981,15.0947425 L10.6682981,18.8546256 C10.6683756,18.9050331 10.6355905,18.956407 10.5876657,18.956407 L10.5876657,18.956407 L10.096017,18.956407 C9.80852012,18.9568357 9.56982637,18.7023567 9.56941301,18.399965 L9.56941301,18.399965 L9.56941301,15.1085851 C9.54747871,14.3966019 9.06588004,14.0203292 8.47538494,14.0211877 C7.884864,14.022073 7.40429875,14.4147636 7.38430211,15.1268274 L7.38430211,15.1268274 L7.38432795,18.8594812 C7.38437962,18.909862 7.35025098,18.956407 7.30232622,18.956407 L7.30232622,18.956407 L6.8107034,18.956407 C6.52320648,18.9568357 6.2844869,18.6903919 6.28407353,18.3880003 L6.28407353,18.3880003 L6.28409937,15.1134408 C6.26216507,14.4014307 5.78054057,14.0251581 5.19001963,14.0260433 C4.59952453,14.0269018 4.11895928,14.4045963 4.09898847,15.1166332 L4.09898847,15.1166332 L4.09898847,18.8643101 C4.09906598,18.9147176 4.06493735,18.956407 4.01701258,18.956407 L4.01701258,18.956407 L3.52536392,18.956407 C3.23786701,18.9568357 3.0004392,18.7120143 3,18.4096227 L3,18.4096227 L3,15.1087997 C3.02847067,13.663345 3.99688677,12.8964205 5.18849534,12.8946768 C5.84244231,12.893711 6.42981132,13.1234021 6.83209515,13.5697463 C7.23313888,13.1222217 7.81988784,12.8907869 8.47383481,12.8898449 Z M17.4772058,12.987578 C17.6829852,12.9869341 17.8837266,13.0114002 18.0616812,13.270708 L18.0616812,13.270708 L18.9599799,14.6470837 C19.0302782,14.7547933 19.1324057,14.8824352 19.2772134,14.8824352 C19.4220211,14.8824352 19.5241228,14.7547933 19.5944211,14.6470837 L19.5944211,14.6470837 L20.4927456,13.270708 C20.6706744,13.0114002 20.8714675,12.9869341 21.0772211,12.987578 L21.0772211,12.987578 L21.9551356,12.987578 C21.9907885,12.9874975 22.0121544,13.0282742 21.9925453,13.0583202 L21.9925453,13.0583202 L20.2602007,15.7139318 C20.2096924,15.7913271 20.1853037,15.8813579 20.1863113,15.9711472 C20.1853037,16.0609365 20.2096924,16.1509672 20.2602007,16.2283625 L20.2602007,16.2283625 L21.9925453,18.8839741 C22.0121544,18.9140201 21.9907885,18.9540189 21.9551356,18.953992 L21.9551356,18.953992 L21.0772211,18.9564177 C20.8714675,18.9570503 20.6706744,18.9308942 20.4927456,18.6715863 L20.4927456,18.6715863 L19.5944211,17.2952106 C19.5241228,17.1874742 19.4220211,17.0598323 19.2772134,17.0598323 C19.1324057,17.0598323 19.0302782,17.1874742 18.9599799,17.2952106 L18.9599799,17.2952106 L18.0616812,18.6715863 C17.8837266,18.9308942 17.6829852,18.9570503 17.4772058,18.9564177 L17.4772058,18.9564177 L16.5992654,18.9564177 C16.5636125,18.9564177 16.5422466,18.9140201 16.5618557,18.8839741 L16.5618557,18.8839741 L18.2942261,16.2283625 C18.3447086,16.1509672 18.3690973,16.0609365 18.3681155,15.9711472 C18.3690973,15.8813579 18.3447086,15.7913271 18.2942261,15.7139318 L18.2942261,15.7139318 L16.5618557,13.0583202 C16.5422466,13.0282742 16.5636125,12.9874975 16.5992654,12.9874975 L16.5992654,12.9874975 Z M13.5841648,14.0269286 C12.6676521,14.0269286 11.9960854,14.7352902 11.9960854,15.9449106 C11.9960854,17.1545309 12.6676521,17.8628925 13.5841648,17.8628925 C14.5007033,17.8628925 15.1722442,17.1545309 15.1722442,15.9449106 C15.1722442,14.7352902 14.5007033,14.0269286 13.5841648,14.0269286 Z M17.3492686,6.00000092 C19.039734,6.00131636 20.4147226,7.39389545 20.4150843,9.18656942 C20.415446,10.9421956 19.039734,12.4006881 17.3492686,12.401359 C15.6607151,12.4020026 14.8280643,11.1238398 14.588053,10.6132185 C14.5867612,11.4245414 13.838489,12.3706958 12.7869086,12.3706958 L12.7869086,12.3706958 L10.1786646,12.370186 L10.1786646,6.10419713 L12.9761791,6.10419713 C13.8444828,6.10521655 14.586787,7.02829985 14.5847977,7.81032784 C14.797966,7.28940508 15.6607151,5.99874099 17.3492686,6.00000092 Z M7.13491249,6.10476049 L7.13491249,8.43549955 L8.19881642,8.43549955 L8.19881642,6.10476049 L9.83781752,6.10476049 L9.83781752,12.3702665 L8.19881642,12.3702665 L8.19881642,9.93927572 L7.13491249,9.93927572 L7.13491249,12.3702665 L5.44542891,12.3702665 L5.44542891,6.10476049 L7.13491249,6.10476049 Z M12.5683148,9.8519545 L11.7387126,9.8519545 L11.7387126,10.9108887 L12.5683148,10.9108887 C12.8096696,10.9108887 12.9997927,10.6634115 12.9997927,10.3814082 C12.9997927,10.0994854 12.8096696,9.8519545 12.5683148,9.8519545 L12.5683148,9.8519545 Z M17.3502762,7.59289664 C16.5019691,7.59289664 15.8143327,8.30699919 15.8143327,9.18780345 C15.8143327,10.068715 16.5019691,10.7827907 17.3502762,10.7827907 C18.1985833,10.7827907 18.8862972,10.068715 18.8862972,9.18780345 C18.8862972,8.30699919 18.1985833,7.59289664 17.3502762,7.59289664 Z M17.3502762,7.93402621 C18.0170634,7.93402621 18.5576702,8.49543062 18.5576702,9.18780345 C18.5576702,9.88033725 18.0170634,10.4416075 17.3502762,10.4416075 C16.683334,10.4416075 16.1428047,9.88033725 16.1428047,9.18780345 C16.1428047,8.49543062 16.683334,7.93402621 17.3502762,7.93402621 Z M14.2940455,8.7931276 C14.1824364,8.93716068 13.8656679,9.16277405 13.6755706,9.18780345 C13.8686906,9.21288651 14.1702937,9.46352928 14.2976625,9.66717151 C14.2518562,9.48858551 14.2548273,8.97171359 14.2940455,8.7931276 Z M12.5713634,7.49929794 L11.7417354,7.49929794 L11.7417354,8.55825898 L12.5713634,8.55825898 C12.8127182,8.55825898 13.0028155,8.31067446 13.0028155,8.02869798 C13.0028155,7.7467215 12.8127182,7.49929794 12.5713634,7.49929794 L12.5713634,7.49929794 Z" id="Combined-Shape" fill="#101121"></path>
    </g>
</svg>