<?xml version="1.0" encoding="UTF-8"?>
<svg width="102px" height="22px" viewBox="0 0 102 22" version="1.1" xmlns="http://www.w3.org/2000/svg" xmlns:xlink="http://www.w3.org/1999/xlink">
    <!-- Generator: Sketch 64 (93537) - https://sketch.com -->
    <title>Artboard</title>
    <desc>Created with Sketch.</desc>
    <g id="Artboard" stroke="none" stroke-width="1" fill="none" fill-rule="evenodd">
        <g id="Group-14" transform="translate(2.000000, 3.000000)" fill-rule="nonzero">
            <path d="M3.20673415,15.5877011 L3.20673415,9.13175949 L10.1086454,9.13175949 L10.1086454,15.5877011 L13.3153795,15.5877011 L13.3153795,0.265458125 L10.1086454,0.265458125 L10.1086454,6.48779657 L3.20673415,6.48779657 L3.20673415,0.265458125 L0,0.265458125 L0,15.5877011 L3.20673415,15.5877011 Z M22.4138683,15.8531592 C26.9478931,15.8531592 29.8042225,12.8056999 29.8042225,7.93188877 C29.8042225,3.04745927 26.9478931,0 22.4138683,0 C17.8692252,0 15.0235141,3.04745927 15.0235141,7.93188877 C15.0235141,12.8056999 17.8692252,15.8531592 22.4138683,15.8531592 Z M22.4138683,13.166723 C19.8973253,13.166723 18.2939582,11.1386229 18.2939582,7.93188877 C18.2939582,4.7145363 19.9079436,2.6758179 22.4138683,2.6758179 C24.919793,2.6758179 26.5231601,4.7145363 26.5231601,7.93188877 C26.5231601,11.1386229 24.919793,13.166723 22.4138683,13.166723 Z M35.7101348,15.5877011 L35.7101348,2.90942105 L40.1485947,2.90942105 L40.1485947,0.265458125 L28.0755592,0.265458125 C28.6873136,0.781083037 29.1059486,1.20115309 29.3314642,1.52566828 C29.5569798,1.85018347 29.750802,2.31143439 29.9129307,2.90942105 L32.5034007,2.90942105 L32.5034007,15.5877011 L35.7101348,15.5877011 Z" id="HOTPACK" fill="#A61616"></path>
            <path d="M47.424271,15.5877011 L47.424271,10.7563632 L50.2912187,10.7563632 C53.5191895,10.7563632 55.7596561,8.65393487 55.7596561,5.51091067 C55.7596561,2.35726815 53.5935178,0.265458125 50.4504936,0.265458125 L44.2175368,0.265458125 L44.2175368,15.5877011 L47.424271,15.5877011 Z M49.5904093,8.25043852 L47.424271,8.25043852 L47.424271,2.8032378 L49.6010276,2.8032378 C51.4379978,2.8032378 52.4998303,3.7801237 52.4998303,5.521529 C52.4998303,7.27355262 51.4273795,8.25043852 49.5904093,8.25043852 Z M57.8061613,15.5877011 L58.974177,11.8712873 L64.3576678,11.8712873 L65.5256835,15.5877011 L68.9341658,15.5877011 L63.6037667,0.265458125 L59.8342613,0.265458125 L54.5144805,15.5877011 L57.8061613,15.5877011 Z M63.6674767,9.47154589 L59.6643681,9.47154589 L61.6287583,3.19611582 L61.7030865,3.19611582 L63.6674767,9.47154589 Z M76.1638294,15.8531592 C79.9227164,15.8531592 82.5454427,13.6870209 82.9064658,10.2679203 L79.7846782,10.2679203 C79.4448918,12.0836538 78.0751279,13.198578 76.1744477,13.198578 C73.7216146,13.198578 72.1819575,11.1810962 72.1819575,7.91065212 C72.1819575,4.68268132 73.7428513,2.65458125 76.1638294,2.65458125 C78.0326546,2.65458125 79.4767468,3.88630695 79.7740599,5.76575047 L82.8958474,5.76575047 C82.651626,2.3360315 79.8483882,0 76.1638294,0 C71.7253695,0 68.9115134,2.98374932 68.9115134,7.92127044 C68.9115134,12.8694099 71.7041329,15.8531592 76.1638294,15.8531592 Z M88.0882084,15.5877011 L88.0882084,10.9050198 L89.5216822,9.18485112 L94.0663253,15.5877011 L97.8995406,15.5877011 L91.8364771,7.06118612 L97.5066626,0.265458125 L93.9389054,0.265458125 L88.1837733,7.25231597 L88.0882084,7.25231597 L88.0882084,0.265458125 L84.8814742,0.265458125 L84.8814742,15.5877011 L88.0882084,15.5877011 Z" id="HOTPACK" fill="#9B9B9B"></path>
        </g>
    </g>
</svg>