<?xml version="1.0" encoding="UTF-8"?>
<svg width="63px" height="25px" viewBox="0 0 63 25" version="1.1" xmlns="http://www.w3.org/2000/svg" xmlns:xlink="http://www.w3.org/1999/xlink">
    <title>Win </title>
    <g id="Win-" stroke="none" stroke-width="1" fill="none" fill-rule="evenodd">
        <g id="Win-white" fill="#F25411" fill-rule="nonzero">
            <path d="M10.5338575,0 L7.57051274,9.87699196 L10.206764,20.2242072 L16.0127416,0 L10.5338575,0 Z M16.1988637,0.116458174 L13.2776518,10.427973 L15.2518479,17.9527689 L21.0460597,17.9527689 L16.1988637,0.116458174 Z M5.5755265,3.02978392 L0,3.02978392 L4.38753724,20.1803734 L9.95643908,20.1803734 L5.5755265,3.02978392 Z M27.4704543,4.29952351 L26.6897085,6.41887515 L31.7453002,6.41887515 L32.5155527,4.30636129 L27.4704543,4.29952351 Z M19.377607,6.95502901 L18.7773187,8.7013258 L21.2307493,17.7349677 L24.779039,6.95682842 L19.377607,6.95502901 Z M32.9523489,6.95502901 L37.6157788,24.950768 L40.7969231,16.3001137 L38.4661259,6.95625261 L32.9523489,6.95502901 Z M32.7896638,7.20478788 L29.130457,17.9501778 L34.3014451,17.9429801 L35.0038952,15.8190939 L32.7896638,7.20478788 Z M31.4037793,7.34449451 L26.3493149,7.35169217 L22.4675106,17.9542804 L27.56986,17.9614782 L31.4037793,7.34449451 Z M56.9411087,8.27629125 C53.6008163,8.28112592 50.8964099,10.9643568 50.8995848,14.2705889 C50.9027563,17.5768677 53.6123821,20.2550274 56.9527247,20.2534311 C60.2930501,20.2518241 63,17.571094 63,14.2648308 L63,14.2533146 C62.9935854,10.9470863 60.2814018,8.27155554 56.9411087,8.27629125 L56.9411087,8.27629125 Z M56.1266777,11.6183943 L57.8013419,11.6183943 L57.8016997,13.4445133 L59.6235607,13.4445133 L59.6235607,15.1020628 L57.8019026,15.1020628 L57.802261,16.9109793 L56.1275939,16.9113392 L56.1272383,15.1022788 L54.2760821,15.1022788 L54.2760821,13.4446572 L56.1270326,13.4446572 L56.1266777,11.6183943 Z M48.1840218,11.733269 L42.6295349,11.773576 L37.8700159,25 L43.1283328,25 L48.1840218,11.733269 Z M34.1317355,18.4286784 C27.8181125,18.4289663 21.5048385,18.4286784 15.1912228,18.4289663 C14.8376526,19.525674 14.486562,20.6233175 14.1383439,21.7215368 C20.4519669,21.7215368 26.7652481,21.7215368 33.0785512,21.7215368 C33.4352773,20.6254768 33.786666,19.5273296 34.1317355,18.4273828 L34.1317355,18.4286784 Z M29.3033226,18.8375776 L29.211007,19.2904545 L29.5226624,19.2976522 L29.4652878,19.5181165 L29.1684596,19.5109188 L28.9642525,20.4656887 C28.9484726,20.5131933 28.9745784,20.5558035 28.999448,20.5957505 C29.0826449,20.6166237 29.1683868,20.6130249 29.2522018,20.5957505 L29.2071893,20.8234846 C29.0556155,20.8306822 28.8687153,20.8645112 28.7502284,20.7463976 C28.6783828,20.6830582 28.6948171,20.5789079 28.7014345,20.4944074 L28.9043108,19.5130062 L28.6582253,19.5130062 L28.7020744,19.2898066 L28.9525958,19.2970043 L29.050009,18.8631292 L29.3033226,18.8375776 Z M26.8659482,19.2515871 C26.882528,19.2515871 26.8992532,19.2515871 26.9159056,19.2587848 L26.8648574,19.522723 C26.7277765,19.522723 26.5808931,19.5306404 26.4674455,19.6157168 C26.3473878,19.7036723 26.2582208,19.8325104 26.2197747,19.9753121 L26.0234139,20.8243483 L25.7728998,20.8243483 L26.0965319,19.2984439 L26.339207,19.298084 L26.2774692,19.6269452 C26.3785039,19.4008666 26.6166341,19.2497157 26.8659409,19.2573452 L26.8659482,19.2515871 Z M19.7645694,19.2587848 L19.7645694,19.2587848 C19.9173066,19.2587848 20.0711346,19.30413 20.1869455,19.4015143 C20.3256045,19.5184764 20.3716351,19.7046799 20.3801432,19.8781436 C20.3719987,20.1934732 20.243993,20.5237739 19.9773936,20.7115609 C19.7958746,20.8478846 19.5479202,20.8936617 19.3289004,20.83133 C19.1990694,20.8032591 19.0783137,20.7149438 19.0411401,20.5845222 L18.8754009,21.400809 L18.6163134,21.388573 L19.0682422,19.2977961 L19.3140223,19.2975082 C19.3140223,19.2975082 19.2756271,19.4400218 19.2642831,19.5129342 C19.3736512,19.3455886 19.5682304,19.261088 19.7646058,19.2586408 L19.7645694,19.2587848 Z M32.1599754,19.2587848 C32.2564143,19.2584968 32.3531876,19.2753393 32.4426527,19.3055696 C32.6241645,19.3681892 32.7508614,19.5513697 32.7417207,19.7425397 L32.4883488,19.7425397 C32.4990384,19.6080153 32.3783481,19.5035773 32.2522984,19.4867347 C32.1385381,19.4701801 32.0118631,19.4780975 31.9132282,19.541437 C31.8183746,19.5946997 31.8193345,19.750745 31.9146825,19.8031439 C32.1179443,19.944434 32.3958731,19.9634359 32.5669862,20.1543178 C32.7081685,20.3087077 32.6693952,20.5716384 32.5127385,20.7017721 C32.3621101,20.8268674 32.1557432,20.862064 31.964778,20.8560899 C31.8135171,20.8388155 31.6480178,20.8172226 31.5361409,20.7048671 C31.4327793,20.6115853 31.3994017,20.4687117 31.4060118,20.3351951 L31.6285148,20.3351951 C31.6373864,20.3891776 31.6496031,20.4463271 31.6864712,20.4921761 C31.750754,20.5944549 31.882163,20.6225258 31.994978,20.6338261 C32.1169263,20.6410238 32.2581231,20.6266285 32.3469847,20.5336347 C32.4229315,20.4645371 32.4179577,20.3209438 32.3258964,20.2669613 C32.1336661,20.1340204 31.8824757,20.1073172 31.7019092,19.9541509 C31.5389915,19.8184029 31.5572656,19.5427325 31.7154348,19.4101516 C31.8389321,19.3062174 31.9987302,19.2592886 32.1594591,19.2586408 L32.1599754,19.2587848 Z M23.229306,19.2587848 C23.3976485,19.2659824 23.5650893,19.3091684 23.6814383,19.4340478 C23.79898,19.5491385 23.829878,19.7179955 23.839324,19.8748326 C23.834961,20.16022 23.7422162,20.4612262 23.5191096,20.6542675 C23.2578697,20.8963249 22.8097949,20.9322412 22.5318516,20.6996127 C22.3267064,20.5187355 22.3027458,20.218593 22.3619893,19.9684742 C22.4218363,19.6434278 22.6723867,19.350627 23.0039087,19.2772827 C23.0761179,19.264327 23.1527847,19.2564096 23.229306,19.257849 L23.229306,19.2587848 Z M16.2160325,19.2587848 C16.3886436,19.2587848 16.5712389,19.2998114 16.6864972,19.4344797 C16.7662253,19.5162451 16.7964833,19.6301122 16.7968033,19.7411721 L16.5500488,19.7411721 C16.5515032,19.6054961 16.4328126,19.4969554 16.3017236,19.48292 C16.1690566,19.4656455 16.0052007,19.4757223 15.9166446,19.5893014 C15.8794856,19.6605583 15.8977378,19.7564311 15.9702378,19.7988973 C16.1779063,19.9455137 16.4684736,19.9610607 16.63518,20.1672737 C16.7218454,20.2599076 16.7114104,20.3968791 16.6925545,20.5125455 C16.6532141,20.6364892 16.5504705,20.7315704 16.4323036,20.7829617 C16.2135965,20.8750198 15.9608426,20.8734363 15.7383615,20.7959175 C15.5508649,20.7268199 15.4399553,20.5248535 15.4620106,20.3317402 L15.688535,20.3245426 C15.7190766,20.4102667 15.7301298,20.5159285 15.8224818,20.5627852 C15.9863522,20.6491572 16.2070009,20.6575784 16.3670826,20.5555875 C16.4726549,20.4936876 16.4893146,20.3191443 16.3787175,20.2552291 C16.179557,20.1194812 15.9151684,20.0961608 15.7383832,19.9252163 C15.6340763,19.8301352 15.6303241,19.6753854 15.665956,19.5493543 C15.7437862,19.3637266 15.9507639,19.2692934 16.1429943,19.2533865 C16.1669914,19.2533865 16.1914974,19.2461888 16.2161707,19.2461888 L16.2160325,19.2587848 Z M19.7425067,19.4771618 C19.6696286,19.4771618 19.5965759,19.4908374 19.5308678,19.5203478 C19.2787612,19.6419163 19.1523989,19.9222652 19.1240316,20.1864195 C19.1095606,20.3421049 19.1734798,20.5227662 19.3241592,20.5932313 C19.5015769,20.6761484 19.7240654,20.6277801 19.8655531,20.4977903 C20.0423383,20.3424648 20.1214265,20.1038623 20.1248879,19.8746167 C20.1219792,19.7423237 20.0769667,19.5948436 19.9528295,19.5268257 C19.8880376,19.4944362 19.8153849,19.4778816 19.7425067,19.4771618 L19.7425067,19.4771618 Z M23.1646523,19.4774497 C23.0675371,19.4846474 22.9702839,19.5119985 22.893908,19.5682842 C22.6540908,19.7417478 22.5570921,20.0605324 22.5974288,20.3436884 C22.6579303,20.6092101 22.9963243,20.7077461 23.2206961,20.5813552 C23.4605061,20.4469748 23.5739537,20.1674896 23.584985,19.9052067 C23.573641,19.8043675 23.5626605,19.6978422 23.4939419,19.6175883 C23.4141773,19.5181165 23.2895094,19.4739228 23.1646523,19.4774497 Z" id="path2"></path>
        </g>
    </g>
</svg>